HIERARCHY
ROOT hip
{
  OFFSET 0 0 0
  CHANNELS 6 Xposition Yposition Zposition Zrotation Yrotation Xrotation
  JOINT abdomen
  {
    OFFSET 0 20.6881 -0.73152
    CHANNELS 3 Zrotation Xrotation Yrotation
    JOINT chest
    {
      OFFSET 0 11.7043 -0.48768
      CHANNELS 3 Zrotation Xrotation Yrotation
      JOINT neck
      {
        OFFSET 0 22.1894 -2.19456
        CHANNELS 3 Zrotation Xrotation Yrotation
        JOINT head
        {
          OFFSET -0.24384 7.07133 1.2192
          CHANNELS 3 Zrotation Xrotation Yrotation
          JOINT leftEye
          {
            OFFSET 4.14528 8.04674 8.04672
            CHANNELS 3 Zrotation Xrotation Yrotation
            End Site
            {
              OFFSET 1 0 0
            }
          }
          JOINT rightEye
          {
            OFFSET -3.6576 8.04674 8.04672
            CHANNELS 3 Zrotation Xrotation Yrotation
            End Site
            {
              OFFSET 1 0 0
            }
          }
        }
      }
      JOINT rCollar
      {
        OFFSET -2.68224 19.2634 -4.8768
        CHANNELS 3 Zrotation Xrotation Yrotation
        JOINT rShldr
        {
          OFFSET -8.77824 -1.95073 1.46304
          CHANNELS 3 Zrotation Xrotation Yrotation
          JOINT rForeArm
          {
            OFFSET -28.1742 -1.7115 0.48768
            CHANNELS 3 Zrotation Xrotation Yrotation
            JOINT rHand
            {
              OFFSET -22.5879 0.773209 7.07136
              CHANNELS 3 Zrotation Xrotation Yrotation
              JOINT rThumb1
              {
                OFFSET -1.2192 -0.487915 3.41376
                CHANNELS 3 Zrotation Xrotation Yrotation
                JOINT rThumb2
                {
                  OFFSET -3.37035 -0.52449 3.41376
                  CHANNELS 3 Zrotation Xrotation Yrotation
                  End Site
                  {
                    OFFSET -1.78271 -1.18214 1.43049
                  }
                }
              }
              JOINT rIndex1
              {
                OFFSET -7.75947 0.938293 5.60832
                CHANNELS 3 Zrotation Xrotation Yrotation
                JOINT rIndex2
                {
                  OFFSET -2.54057 -0.884171 1.56538
                  CHANNELS 3 Zrotation Xrotation Yrotation
                  End Site
                  {
                    OFFSET -1.62519 -0.234802 1.16502
                  }
                }
              }
              JOINT rMid1
              {
                OFFSET -8.24714 1.18213 3.41376
                CHANNELS 3 Zrotation Xrotation Yrotation
                JOINT rMid2
                {
                  OFFSET -3.10165 -0.590103 1.0647
                  CHANNELS 3 Zrotation Xrotation Yrotation
                  End Site
                  {
                    OFFSET -2.48547 -0.328903 0.83742
                  }
                }
              }
              JOINT rRing1
              {
                OFFSET -8.82822 0.546677 1.51678
                CHANNELS 3 Zrotation Xrotation Yrotation
                JOINT rRing2
                {
                  OFFSET -2.60934 -0.819778 -0.0198488
                  CHANNELS 3 Zrotation Xrotation Yrotation
                  End Site
                  {
                    OFFSET -2.33842 -0.294052 0.168128
                  }
                }
              }
              JOINT rPinky1
              {
                OFFSET -8.27202 -0.0477905 -0.4584
                CHANNELS 3 Zrotation Xrotation Yrotation
                JOINT rPinky2
                {
                  OFFSET -1.82734 -0.647385 -0.700984
                  CHANNELS 3 Zrotation Xrotation Yrotation
                  End Site
                  {
                    OFFSET -1.69225 -0.51767 -0.607171
                  }
                }
              }
            }
          }
        }
      }
      JOINT lCollar
      {
        OFFSET 2.68224 19.2634 -4.8768
        CHANNELS 3 Zrotation Xrotation Yrotation
        JOINT lShldr
        {
          OFFSET 8.77824 -1.95073 1.46304
          CHANNELS 3 Zrotation Xrotation Yrotation
          JOINT lForeArm
          {
            OFFSET 28.1742 -1.7115 0.48768
            CHANNELS 3 Zrotation Xrotation Yrotation
            JOINT lHand
            {
              OFFSET 22.5879 0.773209 7.07136
              CHANNELS 3 Zrotation Xrotation Yrotation
              JOINT lThumb1
              {
                OFFSET 1.2192 -0.487915 3.41376
                CHANNELS 3 Zrotation Xrotation Yrotation
                JOINT lThumb2
                {
                  OFFSET 3.37035 -0.52449 3.41376
                  CHANNELS 3 Zrotation Xrotation Yrotation
                  End Site
                  {
                    OFFSET 1.78271 -1.18214 1.43049
                  }
                }
              }
              JOINT lIndex1
              {
                OFFSET 7.75947 0.938293 5.60832
                CHANNELS 3 Zrotation Xrotation Yrotation
                JOINT lIndex2
                {
                  OFFSET 2.54057 -0.884171 1.56538
                  CHANNELS 3 Zrotation Xrotation Yrotation
                  End Site
                  {
                    OFFSET 1.62519 -0.234802 1.16502
                  }
                }
              }
              JOINT lMid1
              {
                OFFSET 8.24714 1.18213 3.41376
                CHANNELS 3 Zrotation Xrotation Yrotation
                JOINT lMid2
                {
                  OFFSET 3.10165 -0.590103 1.0647
                  CHANNELS 3 Zrotation Xrotation Yrotation
                  End Site
                  {
                    OFFSET 2.48547 -0.328903 0.83742
                  }
                }
              }
              JOINT lRing1
              {
                OFFSET 8.82822 0.546677 1.51678
                CHANNELS 3 Zrotation Xrotation Yrotation
                JOINT lRing2
                {
                  OFFSET 2.60934 -0.819778 -0.0198488
                  CHANNELS 3 Zrotation Xrotation Yrotation
                  End Site
                  {
                    OFFSET 2.33842 -0.294052 0.168128
                  }
                }
              }
              JOINT lPinky1
              {
                OFFSET 8.27202 -0.0477905 -0.4584
                CHANNELS 3 Zrotation Xrotation Yrotation
                JOINT lPinky2
                {
                  OFFSET 1.82734 -0.647385 -0.700984
                  CHANNELS 3 Zrotation Xrotation Yrotation
                  End Site
                  {
                    OFFSET 1.69225 -0.51767 -0.607171
                  }
                }
              }
            }
          }
        }
      }
    }
  }
  JOINT rButtock
  {
    OFFSET -8.77824 4.35084 1.2192
    CHANNELS 3 Zrotation Xrotation Yrotation
    JOINT rThigh
    {
      OFFSET 0 -1.70687 -2.19456
      CHANNELS 3 Zrotation Xrotation Yrotation
      JOINT rShin
      {
        OFFSET 0 -36.8199 0.73152
        CHANNELS 3 Zrotation Xrotation Yrotation
        JOINT rFoot
        {
          OFFSET 0.73152 -45.1104 -5.12064
          CHANNELS 3 Zrotation Xrotation Yrotation
          End Site
          {
            OFFSET -1.1221 -3.69964 12.103
          }
        }
      }
    }
  }
  JOINT lButtock
  {
    OFFSET 8.77824 4.35084 1.2192
    CHANNELS 3 Zrotation Xrotation Yrotation
    JOINT lThigh
    {
      OFFSET 0 -1.70687 -2.19456
      CHANNELS 3 Zrotation Xrotation Yrotation
      JOINT lShin
      {
        OFFSET 0 -36.8199 0.73152
        CHANNELS 3 Zrotation Xrotation Yrotation
        JOINT lFoot
        {
          OFFSET -0.73152 -45.1104 -5.12064
          CHANNELS 3 Zrotation Xrotation Yrotation
          End Site
          {
            OFFSET 1.1221 -3.69964 12.103
          }
        }
      }
    }
  }
}
MOTION
Frames:	8
Frame Time:	0.03333
1.727 65.83 17.902 0.099307 17.839921 -5.244581 -5.705061 12.471233 -169.421873 -2.486835 4.712348 176.210895 -4.737459 20.728894 -72.508305 19.107716 -13.089918 29.077263 153.359752 -18.955764 70.377171 3.898766 0.410455 12.015163 -147.60928 -50.222194 -174.114014 -138.51348 -29.353317 -143.370513 4.966873 53.865121 -117.093382 152.278803 -20.999546 134.924787 -5.821344 -6.148006 6.067163 -13.256868 20.450153 20.282036 -91.901538 38.888351 41.858417 177.71089 -18.208067 48.661699 -141.990692 -20.282086 137.221816 38.530365 21.404328 28.856905 -115.536267 -28.999774 -151.45794 -88.383348 -28.94521 -154.470936 131.163467 81.665635 -66.104095 -8.031488 25.071315 -54.105462 -10.441175 -10.798561 0.299348 112.712573 4.060923 170.922012 152.652228 -39.816196 72.605989 -1.705874 -43.205612 2.521909 -173.61393 -28.310264 -90.142376 -45.065475 -43.286451 -43.267619 165.289211 -25.520146 -121.915126 71.033249 -85.885639 -177.423321 134.703698 -53.941616 174.774751 -2.362463 53.996925 -11.089998 136.657174 -33.216216 154.055486 16.035151 -50.141544 85.814888 22.226655 -44.180499 3.537948 83.135302 -58.135367 33.162724 -140.120865 71.073828 -54.20828 149.932342 24.042746 49.314141 69.234043 22.262266 61.463877 17.04023 17.820181 -133.796888 81.401922 60.676953 49.890813 -85.089893 21.520855 8.263016 60.279808 24.701101 48.712638 -171.15583 66.729673 81.515389
1.9213 65.8953 18.2425 -2.35073 26.191279 -8.25579 -2.298626 20.33434 -104.3971 9.395116 5.528331 102.543045 -5.198643 10.461645 1.073889 -2.104583 -15.686831 -34.826471 155.88248 -16.038957 66.809483 58.075146 15.394892 27.365878 -0.518912 11.324031 1.701553 -121.596867 27.934889 139.108632 3.885901 -3.178122 -116.991132 155.874262 -15.431921 134.430317 6.647187 -7.181275 12.958098 -60.269486 34.684176 44.429533 145.694545 -50.903279 98.946483 -44.168372 52.67295 -13.790847 174.625882 -59.731429 116.2863 -6.243614 14.801001 52.821586 24.700989 8.369396 -5.990437 -105.705244 51.582134 73.626774 30.24469 33.814526 -13.973955 -90.761117 65.976278 75.74031 145.258857 -47.295467 -179.841805 33.547769 -1.104768 25.118212 -4.200461 -9.542758 129.624377 166.281799 23.978476 -137.842549 179.023911 -3.159194 -92.73714 -1.762632 -41.637189 -22.704131 8.880743 -2.633592 3.389899 167.238026 -8.47874 -86.332522 126.371773 -58.816346 -172.037223 142.091929 -19.579515 -130.654464 115.41314 -48.211504 119.298618 -88.652687 21.26298 12.805357 139.306065 -19.274917 158.165114 131.325074 -38.260846 171.582112 -17.663947 -9.149198 2.660255 -21.555015 -38.943194 -153.917665 -72.587252 -25.462738 -100.103125 116.955245 40.130559 -174.340611 -135.66141 80.19718 -41.573153 -132.531185 59.57821 -141.369436 -67.992483 -12.555625 -99.879235 53.265684 45.376543 -171.773865
1.9539 65.5091 18.1289 -0.744364 27.659966 -4.413473 -4.867782 17.779747 -67.673809 10.732609 0.168563 70.402882 -0.421149 33.681947 173.015602 3.514423 39.92419 142.367602 9.268488 7.537787 78.199353 6.413423 -0.567549 -10.103874 -1.148096 -27.239103 -13.4855 -127.892094 -3.434833 160.424105 -1.442994 1.327552 -113.00999 153.385513 -26.95101 133.14492 -57.491904 21.411685 26.897867 -150.497561 -43.042793 98.966717 -19.445911 -11.507605 6.663905 59.265822 -68.840394 -13.689175 -167.283115 -38.269491 134.605448 -20.300656 37.36718 36.620994 14.474013 6.909518 -4.945771 -5.244187 -29.373904 30.861326 -133.935627 47.182986 -138.141801 47.32127 0.825206 -45.246333 145.015946 21.654155 -153.133943 -119.293018 -23.870348 -141.047253 0.499872 8.148601 -99.921619 4.613066 -23.872965 4.626189 152.063103 23.979509 -77.568966 -27.829294 -30.885781 -39.542808 156.949708 -2.126498 -122.326848 163.225841 1.922906 -164.429355 69.774742 76.568692 -86.640634 10.335682 23.298102 21.505748 126.174083 -32.81698 144.493188 -66.87872 15.80608 21.456133 142.105012 43.917346 174.710178 -20.545347 -29.353829 13.674256 13.333769 -6.3467 19.219585 -61.268048 -29.704717 -16.819171 53.437666 61.861 -171.41702 -59.030174 77.319609 145.74933 -0.125372 -19.758536 4.631955 24.226788 2.48107 -86.776939 -56.177577 -1.507307 89.321907 87.747814 5.50938 -7.091937
1.9035 64.57270000000001 17.7606 0.697209 26.737659 -1.827824 -8.524946 17.29244 5.596645 5.97732 -10.929158 -0.814974 7.355903 20.483029 83.002542 -27.666265 11.979755 -125.086952 24.202048 12.872167 55.501826 0.208193 -0.012317 -6.771435 -9.893927 48.046386 7.218675 69.966982 -41.838837 74.768188 -2.721804 -13.542323 77.421792 2.815616 26.174822 -5.226485 -2.87842 -8.077392 9.066915 -138.398034 -43.741828 125.607605 -17.834168 -10.193766 6.041276 -31.197673 61.0443 39.907267 27.004589 -29.170887 3.015768 -175.646527 12.754897 133.801712 -114.925193 -52.483243 -147.720497 52.325807 42.454377 1.301765 -135.730775 55.036216 -147.626484 60.824232 21.337586 -37.542848 -1.290462 8.638612 -5.712663 -72.581833 10.11738 -5.593015 -3.92641 26.95809 -100.062764 7.168588 -17.387571 2.689452 -28.543833 -37.498423 -11.477599 152.57688 -29.407222 -142.2521 142.98575 23.791699 -115.182434 59.914426 -54.793814 85.022405 -21.401723 28.072788 10.806205 0.80535 -53.51655 -5.978118 -8.794315 35.295071 8.822178 -12.280165 -62.294814 -41.60446 15.512542 -25.763569 -3.523315 140.857437 -48.486056 108.096921 -156.778788 86.091447 -25.800886 151.830296 21.168538 -100.63406 -68.913878 -11.18892 155.10894 124.590686 -77.939802 18.385087 -72.292462 76.185036 -106.210947 -139.848358 68.079589 55.881913 57.718459 -4.551659 -101.813882 97.016802 13.493837 -11.974411
2.0265999999999997 63.522 17.4911 1.2234 26.169341 -1.922261 -8.128585 19.335143 -1.183556 6.646806 -11.408546 4.719498 -13.508837 20.584309 -66.819359 27.86247 -3.30855 29.51893 38.523724 10.999088 30.808236 22.679865 1.730373 8.612772 -0.817001 -15.542411 -7.299058 50.246717 -10.824728 27.256779 128.92497 6.44812 66.520832 174.144635 29.859655 147.937295 119.804571 -38.740436 61.806691 -176.829975 -19.336746 116.511462 -170.434616 -11.746944 109.693952 94.71165 -61.800578 75.227259 -147.757386 -18.089136 140.405915 -129.025545 12.077082 137.970424 -129.157809 1.917251 -179.215515 -123.669869 -2.581258 -148.151582 -1.96974 -6.566081 -8.085109 -83.230618 74.946445 111.644626 152.681505 -4.227254 -160.15616 -125.880647 -30.375586 -169.910416 159.459038 -0.173734 -43.60145 172.359524 -0.413199 -147.052295 2.268788 -12.646743 1.829771 -2.181436 -44.699003 34.999845 -2.303799 -62.417977 30.189775 90.364583 -4.994541 -113.176849 20.946009 73.684834 -36.635343 172.363389 -27.977509 -169.150208 -11.818554 89.212237 3.69121 -159.689431 -55.509584 169.315096 152.326664 15.918842 155.612532 84.848938 -40.269895 120.389167 -99.262838 78.578254 -75.758283 139.370327 18.131508 -82.353537 -79.901434 -4.869044 -94.236328 -43.426926 7.099735 -175.488774 -86.186678 59.110884 -79.840367 171.081541 65.314839 176.068269 -18.086805 -66.937088 -115.257004 170.872946 -57.778283 62.919043
2.4341999999999997 62.6455 17.512 1.56307 26.133175 -2.861392 -7.775269 22.109411 -8.799239 7.699184 -11.897489 11.33964 -14.153329 25.284528 -88.1781 33.277118 8.810255 50.243782 43.505846 6.885861 17.148617 44.163732 8.521117 20.810992 -18.865264 47.975805 19.427102 -123.227259 37.229678 116.530181 158.642259 26.636632 -88.509154 -3.691323 48.211381 -4.645889 149.564323 -29.938395 73.354791 -10.560256 -55.913178 0.928845 -170.045808 -13.817315 106.208199 -90.904534 39.073334 32.427734 -145.248229 -8.622501 138.979697 6.872593 52.89052 18.356244 -125.155803 3.261718 178.310405 -51.84068 -48.356802 -104.294097 -176.329149 35.685655 -134.794036 -21.472786 5.385088 -6.091918 153.887224 -5.941666 -161.369564 -144.262553 49.530743 -162.140508 -84.119602 69.772906 -23.794463 11.048534 -2.614333 -3.015449 159.623278 17.609553 -88.050432 140.079582 -11.439 -74.566062 138.115496 -77.382844 -176.189777 103.554023 -51.991589 -157.74521 114.476804 56.842133 -133.388928 -4.319616 -36.260812 33.324875 99.865793 -56.097354 100.389373 118.820989 60.333807 167.242808 2.995752 50.797348 -31.892359 12.241281 22.973774 24.631262 -4.572582 -14.503679 -0.895265 -35.95352 -41.265893 60.11857 66.639445 -0.35522 -84.369769 122.080213 -30.640563 -12.479968 -93.753313 83.052486 -93.226358 -127.311993 56.113362 -179.598201 -54.323218 -41.888924 70.215104 82.197483 41.103116 -0.761316
3.0566 62.143899999999995 17.8074 1.89437 26.271367 -3.227697 -6.31222 19.915025 -121.138151 6.612336 8.484277 121.501486 -15.455255 26.118273 -80.797465 36.000336 6.060486 43.188016 38.268048 6.632868 18.964188 49.642275 11.281994 24.109785 -153.278565 10.080677 156.666608 167.843895 32.804584 -176.302294 10.499948 9.957256 78.879891 0.174739 32.53743 -2.323545 166.390247 -22.220677 77.608755 50.525062 -62.96376 45.091428 0.14876 -18.980485 13.79904 -143.575547 64.683497 150.109891 -74.919504 55.206829 80.051387 16.596676 52.716099 -29.381742 21.72781 -4.166412 1.000259 67.560246 -66.817361 83.786991 9.460804 50.631903 -9.983295 -129.352609 28.642127 167.836765 0.266568 7.628867 -2.936708 104.047606 -28.649225 -175.529351 173.117715 -4.846672 79.277508 4.018093 -30.771729 0.590167 -4.588761 -21.327162 4.252693 147.540928 -33.582436 -121.063485 150.487085 3.688632 -137.761921 29.11071 -36.796276 62.25051 108.334381 58.010964 -126.560582 158.635462 86.724693 -158.900973 85.340956 -57.48244 85.93822 85.854521 -52.843929 158.656613 137.543083 -12.983491 146.750067 -41.641205 27.207995 -17.941799 -9.659854 -16.141439 -7.28573 -25.918305 -41.468478 20.037807 62.582033 50.88868 -158.864245 3.329412 -0.837508 99.936469 -30.592655 -13.090155 -18.266616 49.668127 6.604653 84.054214 67.38861 28.837189 169.150399 -64.980516 70.311175 159.939326
3.3618 62.4812 17.9296 2.430167 27.16822 -0.039588 -7.594553 14.873949 -142.39789 -0.016731 8.954943 144.530477 -2.301457 18.331579 35.060213 -20.523285 -19.335999 -82.856227 17.68353 5.967317 37.048969 18.5001 -0.455156 -2.794206 -143.915303 40.094696 148.19379 -25.728338 14.513795 4.651908 8.196581 -14.645145 -110.4117 160.963514 -19.887647 143.235548 -161.455433 4.918689 79.815953 162.276099 -32.28597 79.976952 1.142089 -13.961663 12.148365 -119.542583 78.016359 104.464093 -154.637468 -26.360915 140.295602 6.037215 31.346962 21.480681 16.768073 13.64116 -0.928452 -47.537551 28.511974 30.850481 16.383093 51.667829 4.236805 -158.984091 38.784388 -170.461313 8.932815 32.670492 -14.117541 -66.950671 13.443801 -30.350002 8.167865 3.195678 -103.148175 5.509122 -33.279929 4.548528 20.063154 -0.218661 -1.811771 8.176038 13.89465 -3.382533 33.998846 46.098112 -9.500943 146.550107 22.773975 -53.373821 139.651105 -46.514328 -161.35893 -90.144234 -69.6176 -38.158941 138.017813 -23.695121 152.117543 106.568681 -30.903226 149.486146 149.86772 13.134274 156.604854 -7.516232 -37.681608 15.976485 -1.001308 -17.294853 -1.370549 -35.451739 -44.181147 -123.292025 -69.024361 -10.656706 66.269886 -37.697468 -20.811938 41.576003 -10.167978 -18.948931 2.416027 27.419426 -2.504296 91.805768 74.778652 3.395861 80.881467 -100.961407 -15.792905 179.823811
